<svg id="Calque_1" data-name="Calque 1" xmlns="http://www.w3.org/2000/svg" viewBox="0 0 997.73 1095.71"><defs><style>.cls-1{fill:#020202;}.cls-2{fill:#3a3a3a;}.cls-3{fill:#1d1d1b;opacity:0.25;}</style></defs><path class="cls-1" d="M.48,567.67C0,555.58,0,542.63,0,530.28c.54-7.44,1-11.19,1.64-17.69Q3,491.26,6,470.09A538.35,538.35,0,0,1,30.52,368.4a547.29,547.29,0,0,1,450-364.57c15.3-1.94,30.69-3,46.09-3.82h6.16l31.86,0h6.15c8.06.56,16.12,1.07,24.18,1.69a512.25,512.25,0,0,1,74.82,11.49c98.41,22.54,184,68.93,257.32,138.22,2.7,2.56,3.32,4.65,2.28,8.3q-44.9,158.22-89.54,316.5L740.32,828.35c-2.67,9.46-5.37,18.92-8,28.4-.75,2.71-.45,3,2.38,3.15,1,.05,2,0,3.08,0H786.3q103.2,0,206.4,0c1.66,0,3.42-.38,5,.42-.16,1.7-1.22,2.61-2,3.65A543.56,543.56,0,0,1,873.39,988.75q-134,98.14-300,106.21c-3.51-.49-7,0-10.52,0H533.53c-3.5,0-7-.49-10.51,0C244.43,1082.24,19.62,861.36,1.65,583.24,1.19,577.49,1,573.89.48,567.67Zm845.39-399c-.51-1.53-2-2.09-3.12-3a471.19,471.19,0,0,0-61-40.34Q675.23,66.25,553.38,64.48c-5.77-.09-5.84-.58-4.15,5.4q21.59,76.32,43.14,152.65c2.67,9.44,5.42,18.86,8.13,28.29.19.86.34,1.73.58,2.58q35,123.92,70.07,247.82,19.4,68.63,38.77,137.26a10.94,10.94,0,0,0,2.1,4.76c.67-2.16,1.17-3.65,1.6-5.16q20.61-72.86,41.21-145.72Q799.95,332.66,845,172.92C845.42,171.53,846.18,170.18,845.87,168.64ZM469.37,441.22c-.07,2-.2,4.11-.2,6.16q0,100.32,0,200.63c0,1.91.12,3.82.18,5.73-.06,1.31-.19,2.63-.19,4V853.81c0,.74,0,1.47,0,2.21.11,3.73.19,3.82,4.1,3.92,1.32,0,2.64,0,4,0q66.56,0,133.1,0c25.41,0,50.83.16,76.24.19,1.65,0,3.53.68,4.94-.88-.16-.86-.24-1.73-.48-2.57q-28.15-99.76-56.32-199.52Q593.43,511,552.14,364.9q-7.42-26.26-15-52.49a9.33,9.33,0,0,0-.19-1.29q-14-49.38-28-98.76-18.93-67-37.85-134a7.55,7.55,0,0,0-2-4.12v5.1q0,178.71,0,357.44C469.17,438.29,469.3,439.76,469.37,441.22Zm348.4,485.23c-4.25-.51-8.51-.14-12.77-.14q-200.43,0-400.86,0c-8.1,0-7.2.93-7.2-7.38q0-166,0-332.08c0-6.42.52-6.17-5.81-6.17H71c-6,0-6.14,0-5.68,6.11a450.13,450.13,0,0,0,8.66,60.15C96,749.78,145.93,836.83,224.19,907c84.68,76,184.46,116.67,298,123.13a465.83,465.83,0,0,0,110.63-7,480.29,480.29,0,0,0,207-91.35c1.86-1.41,3.91-2.62,5.39-4.5a1.62,1.62,0,0,0,.23-.37.33.33,0,0,0-.07-.29,4.19,4.19,0,0,0-2.56-.36Q830.29,926.35,817.77,926.45ZM396.93,301.14q0-103.18,0-206.38c0-7.08.72-6.92-6.23-4.53Q284,127,204.38,206.89A479.22,479.22,0,0,0,86,402.18,473.16,473.16,0,0,0,65.37,507.05c-.66,8-1,7.26,6.64,7.26q159,0,318,0c7.65,0,7,.71,7-6.78Q396.94,404.35,396.93,301.14Z"/><path class="cls-2" d="M533.53,1095h29.38c0,.25-.09.5-.14.74H533.66A6.54,6.54,0,0,0,533.53,1095Z"/><path class="cls-3" d="M817.77,926.45c-4.25-.51-8.51-.14-12.77-.14q-200.43,0-400.86,0c-8.1,0-7.2.93-7.2-7.38q0-166,0-332.08c0-6.42.52-6.17-5.81-6.17H71c-6,0-6.14,0-5.67,6.11a448.49,448.49,0,0,0,8.65,60.15C96,749.78,145.93,836.83,224.19,907c84.68,76,184.46,116.67,298,123.13a465.83,465.83,0,0,0,110.63-7,480.29,480.29,0,0,0,207-91.35c1.86-1.41,6.05-3.91,7.53-5.79-7.28,0-16.65.43-23.92.38C821.51,926.39,820.33,926.43,817.77,926.45Z"/><path class="cls-3" d="M72,514.31q159,0,318,0c7.65,0,7,.71,7-6.78q0-103.18,0-206.39t0-206.38c0-7.08.72-6.92-6.23-4.52Q284,127,204.38,206.89A479.22,479.22,0,0,0,86,402.18,473.16,473.16,0,0,0,65.37,507.05C64.71,515.05,64.38,514.31,72,514.31Z"/><path class="cls-3" d="M592.37,222.53c2.67,9.44,5.42,18.86,8.13,28.29,0-2.2,1.46-3.39,3-4.53,6-4.3,11.79-8.78,17.86-12.9a376.1,376.1,0,0,1,129.51-56,369.11,369.11,0,0,1,95-8.74c-.51-1.53-2-2.09-3.12-3a471.19,471.19,0,0,0-61-40.34Q675.23,66.25,553.38,64.48c-5.77-.09-5.84-.58-4.15,5.4Q570.82,146.2,592.37,222.53Z"/><path class="cls-3" d="M469.37,441.22c1.23-1.89,1.61-4.09,2.25-6.18A377,377,0,0,1,534,315.38c.88-1.15,1.67-2.44,3.15-3a9.33,9.33,0,0,0-.19-1.29q-14-49.38-28-98.76-18.93-67-37.85-134a7.55,7.55,0,0,0-2-4.12v5.09q0,178.73,0,357.45C469.17,438.29,469.3,439.76,469.37,441.22Z"/><path class="cls-3" d="M473.27,859.94c1.32,0,2.64,0,4,0q66.56,0,133.1,0h8.89l-6.57-4.21a384.58,384.58,0,0,1-70.68-66A378.65,378.65,0,0,1,471.52,660c-.65-2.1-1-4.32-2.17-6.22-.06,1.31-.19,2.63-.19,4V853.81c0,.74,0,1.47,0,2.21C469.28,859.75,469.36,859.84,473.27,859.94Z"/></svg>